<svg width="1910" height="545" viewBox="0 0 1910 545" fill="none" xmlns="http://www.w3.org/2000/svg">
<g clip-path="url(#clip0)">
<path d="M419.6 221.6C389.5 221.6 376.7 247.3 376.7 275.3C376.7 303.3 389.2 329 419.6 329C445.9 329 455.5 310.9 456.7 294.3H487.3C485 328.7 458.4 354.1 419.6 354.1C375 354.1 346.1 322 346.1 275.3C346.1 228.6 375 196.5 419.3 196.5C458.1 196.5 483.5 221.3 487.3 255.2H456.7C455.4 240 445.8 221.6 419.6 221.6Z" fill="white"/>
<path d="M573.3 354.1C526.6 354.1 498.3 321.7 498.3 275.3C498.3 228.9 526.6 196.5 573.3 196.5C620 196.5 648.3 228.9 648.3 275.3C648.3 321.7 620 354.1 573.3 354.1ZM573.3 329C602.5 329 617.7 305.9 617.7 275.3C617.7 244.4 602.5 221.6 573.3 221.6C544.1 221.6 528.9 244.4 528.9 275.3C529 306 544.1 329 573.3 329Z" fill="white"/>
<path d="M792.4 246.7V349.7H761.5V255.5C761.5 235.4 753 222.5 732 222.5C708.4 222.5 693.2 236.8 693.2 259V349.7H662.6V200.6H693.2V219.9H693.8C701.7 208.2 717.1 196.6 742.8 196.6C770.6 196.5 792.4 212.6 792.4 246.7Z" fill="white"/>
<path d="M949.1 246.7V349.7H918.2V255.5C918.2 235.4 909.7 222.5 888.7 222.5C865.1 222.5 849.9 236.8 849.9 259V349.7H819.3V200.6H849.9V219.9H850.5C858.4 208.2 873.8 196.6 899.5 196.6C927.3 196.5 949.1 212.6 949.1 246.7Z" fill="white"/>
<path d="M1074.3 304.2H1104.9C1097.3 332.5 1075.1 354.1 1036.9 354.1C990.5 354.1 962.2 322 962.2 275.3C962.2 226.9 990.5 196.5 1035.4 196.5C1083.5 196.5 1107.2 230.1 1107.2 283.2H992.9C992.9 308.3 1008.9 329 1036.1 329C1061.5 329 1071.7 313.2 1074.3 304.2ZM992.9 260.4H1076.6C1076.6 237.3 1060.3 220.7 1035.5 220.7C1010.7 220.8 992.9 237.4 992.9 260.4Z" fill="white"/>
<path d="M1192.8 221.6C1162.7 221.6 1149.9 247.3 1149.9 275.3C1149.9 303.3 1162.4 329 1192.8 329C1219.1 329 1228.7 310.9 1229.9 294.3H1260.5C1258.2 328.7 1231.6 354.1 1192.8 354.1C1148.2 354.1 1119.3 322 1119.3 275.3C1119.3 228.6 1148.2 196.5 1192.5 196.5C1231.3 196.5 1256.7 221.3 1260.5 255.2H1229.9C1228.7 240 1219 221.6 1192.8 221.6Z" fill="white"/>
<path d="M1322.6 225.7V306.5C1322.6 323.4 1330.8 325.5 1350.6 324.3V349.4C1344.5 350.9 1337.8 351.7 1329.6 351.7C1305.1 351.7 1291.7 340.6 1291.7 309.1V225.6H1270.1V200.5H1291.7V153.5H1322.6V200.5H1350.6V225.6H1322.6V225.7Z" fill="white"/>
<path d="M1499.7 231.3V261H1409.5V349.7H1374.8V141.1H1520.7V170.6H1409.5V231.3H1499.7Z" fill="white"/>
<path d="M1541.4 159.2C1541.4 148.7 1550.2 143.2 1558.6 143.2C1567.6 143.2 1576.1 148.7 1576.1 159.2C1576.1 169.7 1567.6 175.5 1558.6 175.5C1550.2 175.5 1541.4 169.7 1541.4 159.2ZM1574.1 200.6V349.7H1543.5V200.6H1574.1Z" fill="white"/>
<path d="M1688.5 198V226.9H1687.9C1658.4 221.9 1634.8 241.8 1634.8 273.6V349.8H1604.2V200.6H1634.8V228.6H1635.4C1643.3 209.9 1655.5 197.1 1675.1 197.1C1680.3 197.1 1684.1 197.4 1688.5 198Z" fill="white"/>
<path d="M1822.7 307.7C1822.7 336.3 1798.2 354.1 1762 354.1C1713.9 354.1 1693.1 331.6 1691.7 300.1H1721.5C1723 316.1 1730 329.9 1761.5 329.9C1782.8 329.9 1791.8 319.4 1791.8 310.1C1791.8 291.4 1774 290 1752.1 284.7C1728.5 279.2 1696.4 274.5 1696.4 240.6C1696.4 216.1 1718 196.5 1755.3 196.5C1795.9 196.5 1815.1 218.4 1817.2 244.4H1787.4C1785.4 232.7 1779.5 220.8 1755.6 220.8C1737.2 220.8 1727.3 227.8 1727.3 238.3C1727.3 253.5 1743.9 254.6 1765.5 259.6C1793 266 1822.7 272.1 1822.7 307.7Z" fill="white"/>
<path d="M1881.7 225.7V306.5C1881.7 323.4 1889.9 325.5 1909.7 324.3V349.4C1903.6 350.9 1896.9 351.7 1888.7 351.7C1864.2 351.7 1850.8 340.6 1850.8 309.1V225.6H1829.2V200.5H1850.8V153.5H1881.7V200.5H1909.7V225.6H1881.7V225.7Z" fill="white"/>
<path d="M401.1 454C380.5 454 371.7 471.6 371.7 490.8C371.7 510 380.3 527.6 401.1 527.6C419.1 527.6 425.7 515.2 426.5 503.8H447.5C445.9 527.4 427.7 544.8 401.1 544.8C370.5 544.8 350.7 522.8 350.7 490.8C350.7 458.8 370.5 436.8 400.9 436.8C427.5 436.8 444.9 453.8 447.5 477H426.5C425.7 466.6 419.1 454 401.1 454Z" fill="#00A5B5"/>
<path d="M518.3 437.8V457.6H517.9C497.7 454.2 481.5 467.8 481.5 489.6V541.8H460.5V439.6H481.5V458.8H481.9C487.3 446 495.7 437.2 509.1 437.2C512.7 437.2 515.3 437.4 518.3 437.8Z" fill="#00A5B5"/>
<path d="M598.9 510.6H619.9C614.7 530 599.5 544.8 573.3 544.8C541.5 544.8 522.1 522.8 522.1 490.8C522.1 457.6 541.5 436.8 572.3 436.8C605.3 436.8 621.5 459.8 621.5 496.2H543.1C543.1 513.4 554.1 527.6 572.7 527.6C590.1 527.6 597.1 516.8 598.9 510.6ZM543.1 480.6H600.5C600.5 464.8 589.3 453.4 572.3 453.4C555.3 453.4 543.1 464.8 543.1 480.6Z" fill="#00A5B5"/>
<path d="M727.8 398.8V541.8H706.8V530H706.4C701 537 691 544.8 675.2 544.8C649 544.8 629.6 524.4 629.6 490.8C629.6 457.2 649 436.8 675.2 436.8C691 436.8 701 444.2 706.4 452H706.8V398.8H727.8V398.8ZM706.6 490.8C706.6 468 696 454 678.8 454C660.4 454 650.6 470.8 650.6 490.8C650.6 510.8 660.4 527.6 678.8 527.6C696 527.6 706.6 513.4 706.6 490.8Z" fill="#00A5B5"/>
<path d="M745.4 411.2C745.4 404 751.4 400.2 757.2 400.2C763.4 400.2 769.2 404 769.2 411.2C769.2 418.4 763.4 422.4 757.2 422.4C751.4 422.4 745.4 418.4 745.4 411.2ZM767.8 439.6V541.8H746.8V439.6H767.8Z" fill="#00A5B5"/>
<path d="M818 456.8V512.2C818 523.8 823.6 525.2 837.2 524.4V541.6C833 542.6 828.4 543.2 822.8 543.2C806 543.2 796.8 535.6 796.8 514V456.8H782V439.6H796.8V407.4H818V439.6H837.2V456.8H818V456.8Z" fill="#00A5B5"/>
<path d="M980.9 439.6V541.8H959.9V528.6H959.5C954.1 536.6 943.5 544.6 925.9 544.6C906.9 544.6 891.9 533.6 891.9 510.2V439.6H913.1V504.2C913.1 518 918.9 526.8 933.3 526.8C949.5 526.8 959.9 517 959.9 501.8V439.6H980.9V439.6Z" fill="#00A5B5"/>
<path d="M1089.1 471.2V541.8H1067.9V477.2C1067.9 463.4 1062.1 454.6 1047.7 454.6C1031.5 454.6 1021.1 464.4 1021.1 479.6V541.8H1000.1V439.6H1021.1V452.8H1021.5C1026.9 444.8 1037.5 436.8 1055.1 436.8C1074.1 436.8 1089.1 447.8 1089.1 471.2Z" fill="#00A5B5"/>
<path d="M1107.5 411.2C1107.5 404 1113.5 400.2 1119.3 400.2C1125.5 400.2 1131.3 404 1131.3 411.2C1131.3 418.4 1125.5 422.4 1119.3 422.4C1113.5 422.4 1107.5 418.4 1107.5 411.2ZM1129.9 439.6V541.8H1108.9V439.6H1129.9Z" fill="#00A5B5"/>
<path d="M1196.5 544.8C1164.5 544.8 1145.1 522.6 1145.1 490.8C1145.1 459 1164.5 436.8 1196.5 436.8C1228.5 436.8 1247.9 459 1247.9 490.8C1247.9 522.6 1228.5 544.8 1196.5 544.8ZM1196.5 527.6C1216.5 527.6 1226.9 511.8 1226.9 490.8C1226.9 469.6 1216.5 454 1196.5 454C1176.5 454 1166.1 469.6 1166.1 490.8C1166.1 511.8 1176.5 527.6 1196.5 527.6Z" fill="#00A5B5"/>
<path d="M1350.6 471.2V541.8H1329.4V477.2C1329.4 463.4 1323.6 454.6 1309.2 454.6C1293 454.6 1282.6 464.4 1282.6 479.6V541.8H1261.6V439.6H1282.6V452.8H1283C1288.4 444.8 1299 436.8 1316.6 436.8C1335.6 436.8 1350.6 447.8 1350.6 471.2Z" fill="#00A5B5"/>
<path d="M155.7 59.1C163.7 59.1 170.3 52.6 170.3 44.5V14.6C170.3 6.6 163.8 0 155.7 0C147.6 0 141.1 6.5 141.1 14.6V44.5C141.1 52.5 147.7 59.1 155.7 59.1Z" fill="#00A5B5"/>
<path d="M141.8 124C145.6 127.8 150.7 129.7 155.7 129.7C160.7 129.7 165.8 127.8 169.6 124L227 66.6C232.5 61.1 233.1 51.6 227.7 45.9C222 39.9 212.6 39.8 206.8 45.6L157.7 94.7C156.6 95.8 154.7 95.8 153.5 94.7L104.4 45.6C98.6001 39.8 89.2001 39.9 83.5001 45.9C78.2001 51.6 78.7001 61.1 84.2001 66.6L141.8 124Z" fill="#00A5B5"/>
<path d="M155.7 252.4C147.7 252.4 141.1 258.9 141.1 267V296.9C141.1 304.9 147.6 311.5 155.7 311.5C163.8 311.5 170.3 305 170.3 296.9V267C170.3 258.9 163.8 252.4 155.7 252.4Z" fill="#00A5B5"/>
<path d="M169.6 187.5C165.8 183.7 160.7 181.8 155.7 181.8C150.7 181.8 145.6 183.7 141.8 187.5L84.4 244.9C78.9 250.4 78.3 259.9 83.7 265.6C89.4 271.6 98.8 271.7 104.6 265.9L153.7 216.8C154.8 215.7 156.7 215.7 157.9 216.8L207 265.9C212.8 271.7 222.2 271.6 227.9 265.6C233.2 259.9 232.7 250.4 227.2 244.9L169.6 187.5Z" fill="#00A5B5"/>
<path d="M59.1 155.7C59.1 147.7 52.6 141.1 44.5 141.1H14.6C6.6 141.1 0 147.6 0 155.7C0 163.7 6.5 170.3 14.6 170.3H44.5C52.5 170.3 59.1 163.8 59.1 155.7Z" fill="#00A5B5"/>
<path d="M129.7 155.7C129.7 150.7 127.8 145.6 124 141.8L66.6 84.4C61.1 78.9 51.6 78.3 45.9 83.7C39.9 89.4 39.8 98.8 45.6 104.6L94.7 153.7C95.8 154.8 95.8 156.7 94.7 157.9L45.6 207C39.8 212.8 39.9 222.3 45.9 227.9C51.6 233.2 61.1 232.7 66.6 227.2L124 169.8C127.8 165.8 129.7 160.7 129.7 155.7Z" fill="#00A5B5"/>
<path d="M296.9 141.1H267C259 141.1 252.4 147.6 252.4 155.7C252.4 163.7 258.9 170.3 267 170.3H296.9C304.9 170.3 311.5 163.8 311.5 155.7C311.4 147.7 304.9 141.1 296.9 141.1Z" fill="#00A5B5"/>
<path d="M216.9 157.8C215.8 156.7 215.8 154.8 216.9 153.6L266 104.5C271.8 98.7 271.7 89.2 265.7 83.6C260 78.3 250.5 78.8 245 84.3L187.6 141.7C183.8 145.5 181.9 150.6 181.9 155.6C181.9 160.6 183.8 165.7 187.6 169.5L245 226.9C250.5 232.4 260 233 265.7 227.6C271.7 221.9 271.8 212.5 266 206.7L216.9 157.8Z" fill="#00A5B5"/>
</g>
<defs>
<clipPath id="clip0">
<rect width="1909.7" height="544.8" fill="white"/>
</clipPath>
</defs>
</svg>
