<?xml version="1.0" encoding="UTF-8"?>
<svg width="20px" height="20px" viewBox="0 0 20 20" version="1.1" xmlns="http://www.w3.org/2000/svg" xmlns:xlink="http://www.w3.org/1999/xlink">
    <!-- Generator: Sketch 55.1 (78136) - https://sketchapp.com -->
    <title>ic-search-close</title>
    <desc>Created with Sketch.</desc>
    <g id="screens" stroke="none" stroke-width="1" fill="none" fill-rule="evenodd">
        <g id="01-homepage-search" transform="translate(-1274.000000, -85.000000)" fill="#888888" fill-rule="nonzero">
            <g id="ic-search-close" transform="translate(1274.000000, 85.000000)">
                <path d="M0.292893219,1.70710678 L18.2928932,19.7071068 C18.6834175,20.0976311 19.3165825,20.0976311 19.7071068,19.7071068 C20.0976311,19.3165825 20.0976311,18.6834175 19.7071068,18.2928932 L1.70710678,0.292893219 C1.31658249,-0.0976310729 0.683417511,-0.0976310729 0.292893219,0.292893219 C-0.0976310729,0.683417511 -0.0976310729,1.31658249 0.292893219,1.70710678 Z" id="Line-2"></path>
                <path d="M0.292893219,1.70710678 L18.2928932,19.7071068 C18.6834175,20.0976311 19.3165825,20.0976311 19.7071068,19.7071068 C20.0976311,19.3165825 20.0976311,18.6834175 19.7071068,18.2928932 L1.70710678,0.292893219 C1.31658249,-0.0976310729 0.683417511,-0.0976310729 0.292893219,0.292893219 C-0.0976310729,0.683417511 -0.0976310729,1.31658249 0.292893219,1.70710678 Z" id="Line-2" transform="translate(10.000000, 10.000000) rotate(-270.000000) translate(-10.000000, -10.000000) "></path>
            </g>
        </g>
    </g>
</svg>