<?xml version="1.0" encoding="UTF-8"?>
<svg width="20px" height="13px" viewBox="0 0 20 13" version="1.1" xmlns="http://www.w3.org/2000/svg" xmlns:xlink="http://www.w3.org/1999/xlink">
    <!-- Generator: Sketch 55.2 (78181) - https://sketchapp.com -->
    <title>ic_dropdown_expand</title>
    <desc>Created with Sketch.</desc>
    <g id="Widgets" stroke="none" stroke-width="1" fill="none" fill-rule="evenodd">
        <g id="04-accordion" transform="translate(-1276.000000, -561.000000)" fill="#666666" fill-rule="nonzero">
            <path d="M1295.8375,562.8345 L1294.9435,561.9405 C1294.84179,561.838397 1294.70361,561.781002 1294.5595,561.781002 C1294.41538,561.781002 1294.2772,561.838397 1294.1755,561.9405 L1285.9965,570.1015 L1277.8215,561.9405 C1277.71979,561.838397 1277.58161,561.781002 1277.4375,561.781002 C1277.29338,561.781002 1277.1552,561.838397 1277.0535,561.9405 L1276.1595,562.8345 C1276.05739,562.936205 1276,563.074386 1276,563.2185 C1276,563.362614 1276.05739,563.500795 1276.1595,563.6025 L1285.6165,573.0595 C1285.7182,573.161603 1285.85638,573.218998 1286.0005,573.218998 C1286.14461,573.218998 1286.28279,573.161603 1286.3845,573.0595 L1295.8415,563.6025 C1295.94307,563.500264 1295.99975,563.361784 1295.99901,563.217669 C1295.99825,563.073554 1295.94013,562.935672 1295.8375,562.8345 L1295.8375,562.8345 Z" id="ic_dropdown_expand" transform="translate(1285.999503, 567.500000) rotate(-360.000000) translate(-1285.999503, -567.500000) "></path>
        </g>
    </g>
</svg>