<svg width="72" height="72" viewBox="0 0 72 72" fill="none" xmlns="http://www.w3.org/2000/svg">
<path d="M21.4062 12C16.2335 12 12 16.2334 12 21.4062V50.5953C12 55.768 16.2334 60 21.4062 60H50.5953C55.7681 60 60 55.7681 60 50.5953V21.4062C60 16.2335 55.7681 12 50.5953 12H21.4062ZM23.772 19.921C26.2522 19.921 27.7799 21.5492 27.827 23.6894C27.827 25.7824 26.2521 27.4564 23.724 27.4564H23.6775C21.2445 27.4564 19.672 25.7825 19.672 23.6894C19.672 21.5492 21.2921 19.921 23.772 19.921H23.772ZM45.1452 29.9242C49.9151 29.9242 53.4908 33.0418 53.4908 39.7414V52.2485H46.2418V40.58C46.2418 37.6478 45.1927 35.6474 42.5694 35.6474C40.5667 35.6474 39.373 36.9957 38.8489 38.2982C38.6575 38.7642 38.6104 39.415 38.6104 40.0669V52.2485H31.3615C31.3615 52.2485 31.4566 32.4824 31.3615 30.4357H38.6119V33.5246C39.5752 32.0384 41.2983 29.9242 45.1452 29.9242V29.9242ZM20.0996 30.4373H27.3485V52.2485H20.0996V30.4373V30.4373Z" fill="#101820"/>
</svg>
