<svg width="72" height="72" viewBox="0 0 72 72" fill="none" xmlns="http://www.w3.org/2000/svg">
<path d="M66 17.6857C64.3292 20.1333 62.2793 22.2198 59.8505 23.9451C59.8745 24.4078 59.8865 24.9308 59.8865 25.5141C59.8865 28.7548 59.4067 31.9994 58.4472 35.248C57.4877 38.4966 56.022 41.6061 54.0502 44.5765C52.0784 47.5468 49.7296 50.1783 47.0039 52.4709C44.2781 54.7635 41.0016 56.5915 37.1744 57.9549C33.3471 59.3183 29.2454 60 24.8691 60C18.0392 60 11.7495 58.1841 6 54.5523C7.02046 54.6642 7.99917 54.7201 8.93612 54.7201C14.642 54.7201 19.7382 52.9893 24.2249 49.5276C21.5645 49.4796 19.1819 48.673 17.0771 47.108C14.9723 45.543 13.5239 43.5432 12.7318 41.1086C13.5147 41.2554 14.2875 41.3289 15.0501 41.3289C16.1477 41.3289 17.2278 41.1879 18.2903 40.9059C15.4512 40.3459 13.0959 38.9533 11.2244 36.728C9.353 34.5027 8.4173 31.9344 8.4173 29.0229V28.8728C10.16 29.8231 12.0188 30.3286 13.9938 30.3893C12.3119 29.285 10.9784 27.845 9.99337 26.0693C9.00822 24.2936 8.51565 22.372 8.51565 20.3044C8.51565 18.1239 9.07048 16.0933 10.1801 14.2128C13.2676 17.9443 17.0088 20.9265 21.4036 23.1597C25.7985 25.3928 30.5133 26.633 35.5482 26.8803C35.3335 25.9989 35.2259 25.0792 35.2255 24.121C35.2255 20.7756 36.4276 17.919 38.8319 15.5514C41.2362 13.1838 44.1368 12 47.5337 12C51.0903 12 54.0859 13.2754 56.5208 15.8261C59.3027 15.2834 61.9076 14.3019 64.3352 12.8814C63.3999 15.7803 61.5977 18.0165 58.9285 19.5902C61.3817 19.3031 63.7389 18.6683 65.9999 17.6857H66Z" fill="#101820"/>
</svg>
