<svg width="48" height="49" viewBox="0 0 48 49" fill="none" xmlns="http://www.w3.org/2000/svg">
<path d="M23.9931 9.09907C25.238 9.09907 26.2371 8.10002 26.2371 6.85504V2.24403C26.2371 0.999054 25.238 0 23.9931 0C22.7481 0 21.749 0.999054 21.749 2.24403V6.85504C21.749 8.10002 22.7634 9.09907 23.9931 9.09907Z" fill="#00A5B5"/>
<path d="M21.8553 19.1053C22.4393 19.6894 23.2232 19.9968 23.9917 19.9968C24.7602 19.9968 25.5441 19.7047 26.1282 19.1053L34.9813 10.2522C35.8267 9.4068 35.9189 7.93128 35.0889 7.05518C34.2128 6.13298 32.7526 6.11761 31.8612 7.00907L24.2991 14.5711C24.1147 14.7556 23.838 14.7556 23.6536 14.5711L16.0915 7.00907C15.2 6.11761 13.7399 6.13298 12.8638 7.05518C12.0338 7.93128 12.126 9.4068 12.9714 10.2522L21.8553 19.1053Z" fill="#00A5B5"/>
<path d="M21.749 41.1461V45.7571C21.749 47.0021 22.7481 48.0012 23.9931 48.0012C25.238 48.0012 26.2371 47.0021 26.2371 45.7571V41.1461C26.2371 39.9012 25.238 38.9021 23.9931 38.9021C22.7481 38.9021 21.749 39.9012 21.749 41.1461Z" fill="#00A5B5"/>
<path d="M35.105 40.9304C35.935 40.0543 35.8428 38.5787 34.9974 37.7334L26.1443 28.8956C25.5602 28.3116 24.7764 28.0042 24.0078 28.0042C23.2393 28.0042 22.4555 28.2962 21.8714 28.8956L13.0183 37.7488C12.1729 38.5941 12.0807 40.0696 12.9107 40.9457C13.7868 41.8679 15.2469 41.8833 16.1384 40.9918L23.7004 33.4298C23.8849 33.2453 24.1615 33.2453 24.346 33.4298L31.9081 40.9918C32.7688 41.8679 34.2289 41.8526 35.105 40.9304Z" fill="#00A5B5"/>
<path d="M9.09907 23.9933C9.09907 22.7483 8.10002 21.7493 6.85504 21.7493H2.24403C0.999054 21.7493 0 22.7483 0 23.9933C0 25.2383 0.999054 26.2373 2.24403 26.2373H6.85504C8.10002 26.2373 9.09907 25.2383 9.09907 23.9933Z" fill="#00A5B5"/>
<path d="M19.1051 26.1448C19.6891 25.5607 19.9965 24.7768 19.9965 24.0083C19.9965 23.2398 19.7045 22.456 19.1051 21.8719L10.2519 13.0034C9.40656 12.158 7.93103 12.0658 7.05494 12.8958C6.13273 13.7719 6.11736 15.232 7.00883 16.1235L14.5709 23.6702C14.7553 23.8546 14.7553 24.1313 14.5709 24.3157L7.00883 31.8778C6.11736 32.7693 6.13273 34.2294 7.05494 35.1055C7.93103 35.9355 9.40656 35.8433 10.2519 34.9979L19.1051 26.1448Z" fill="#00A5B5"/>
<path d="M41.1454 26.2373H45.7564C47.0014 26.2373 48.0004 25.2383 48.0004 23.9933C48.0004 22.7483 47.0014 21.7493 45.7564 21.7493H41.1454C39.9004 21.7493 38.9014 22.7483 38.9014 23.9933C38.9014 25.2383 39.9004 26.2373 41.1454 26.2373Z" fill="#00A5B5"/>
<path d="M40.9301 12.8958C40.054 12.0658 38.5785 12.158 37.7332 13.0034L28.8954 21.8565C28.3113 22.4406 28.0039 23.2245 28.0039 23.993C28.0039 24.7615 28.2959 25.5453 28.8954 26.1294L37.7485 34.9825C38.5939 35.8279 40.0694 35.9201 40.9455 35.0901C41.8677 34.214 41.8831 32.7539 40.9916 31.8624L33.4295 24.3004C33.2451 24.1159 33.2451 23.8393 33.4295 23.6548L40.9916 16.0927C41.8677 15.232 41.8523 13.7719 40.9301 12.8958Z" fill="#00A5B5"/>
</svg>
