<svg width="72" height="72" viewBox="0 0 72 72" fill="none" xmlns="http://www.w3.org/2000/svg">
<path d="M35.9974 21.5755C28.0169 21.5755 21.5763 28.0162 21.5763 35.9966C21.5763 43.9771 28.0169 50.4177 35.9974 50.4177C43.9779 50.4177 50.4185 43.9771 50.4185 35.9966C50.4185 28.0162 43.9779 21.5755 35.9974 21.5755ZM35.9974 45.3693C30.8365 45.3693 26.6248 41.1576 26.6248 35.9966C26.6248 30.8357 30.8365 26.624 35.9974 26.624C41.1583 26.624 45.3701 30.8357 45.3701 35.9966C45.3701 41.1576 41.1583 45.3693 35.9974 45.3693ZM51.0091 17.624C49.1459 17.624 47.6412 19.1287 47.6412 20.9919C47.6412 22.8552 49.1459 24.3599 51.0091 24.3599C52.8724 24.3599 54.3771 22.8622 54.3771 20.9919C54.3777 20.5495 54.2909 20.1113 54.1219 19.7024C53.9528 19.2935 53.7047 18.922 53.3919 18.6092C53.079 18.2963 52.7075 18.0483 52.2987 17.8792C51.8898 17.7101 51.4516 17.6234 51.0091 17.624V17.624ZM64.1084 35.9966C64.1084 32.1154 64.1435 28.2693 63.9255 24.3951C63.7076 19.8951 62.681 15.9013 59.3904 12.6107C56.0927 9.31303 52.106 8.2935 47.606 8.07553C43.7248 7.85756 39.8787 7.89272 36.0044 7.89272C32.1232 7.89272 28.2771 7.85756 24.4029 8.07553C19.9029 8.2935 15.9091 9.32006 12.6185 12.6107C9.32084 15.9083 8.30131 19.8951 8.08334 24.3951C7.86537 28.2763 7.90053 32.1224 7.90053 35.9966C7.90053 39.8708 7.86537 43.724 8.08334 47.5982C8.30131 52.0982 9.32787 56.0919 12.6185 59.3826C15.9162 62.6802 19.9029 63.6997 24.4029 63.9177C28.2841 64.1357 32.1302 64.1005 36.0044 64.1005C39.8857 64.1005 43.7318 64.1357 47.606 63.9177C52.106 63.6997 56.0998 62.6732 59.3904 59.3826C62.688 56.0849 63.7076 52.0982 63.9255 47.5982C64.1505 43.724 64.1084 39.8779 64.1084 35.9966V35.9966ZM57.9209 52.5763C57.4076 53.856 56.7888 54.8122 55.7974 55.7966C54.806 56.788 53.8568 57.4068 52.5771 57.9201C48.8787 59.3896 40.0966 59.0591 35.9974 59.0591C31.8982 59.0591 23.1091 59.3896 19.4107 57.9271C18.131 57.4138 17.1747 56.7951 16.1904 55.8036C15.199 54.8122 14.5802 53.863 14.0669 52.5833C12.6044 48.8779 12.9349 40.0958 12.9349 35.9966C12.9349 31.8974 12.6044 23.1083 14.0669 19.4099C14.5802 18.1302 15.199 17.174 16.1904 16.1896C17.1818 15.2052 18.131 14.5794 19.4107 14.0662C23.1091 12.6037 31.8982 12.9341 35.9974 12.9341C40.0966 12.9341 48.8857 12.6037 52.5841 14.0662C53.8638 14.5794 54.8201 15.1982 55.8044 16.1896C56.7959 17.181 57.4146 18.1302 57.9279 19.4099C59.3904 23.1083 59.0599 31.8974 59.0599 35.9966C59.0599 40.0958 59.3904 48.8779 57.9209 52.5763Z" fill="#101820"/>
</svg>
