<?xml version="1.0" encoding="UTF-8"?>
<svg width="16px" height="19px" viewBox="0 0 16 19" version="1.1" xmlns="http://www.w3.org/2000/svg" xmlns:xlink="http://www.w3.org/1999/xlink">
    <!-- Generator: sketchtool 54.1 (76490) - https://sketchapp.com -->
    <title>642D9444-A504-4B38-83A0-B4790486B66B@2x</title>
    <desc>Created with sketchtool.</desc>
    <g id="screens" stroke="none" stroke-width="1" fill="none" fill-rule="evenodd">
        <g id="00-homepage-daily-banking" transform="translate(-1150.000000, -20.000000)" fill="#FFFFFF" fill-rule="nonzero">
            <g id="lock-alt" transform="translate(1150.000000, 20.000000)">
                <path d="M7.77777778,14.5035597 C7.51987899,14.5040387 7.27239417,14.4004395 7.08994852,14.2156287 C6.90750287,14.0308178 6.80509673,13.7799901 6.80533333,13.5185086 L6.80533333,11.2654182 C6.82122295,10.7327407 7.25171356,10.3092714 7.77733333,10.3092714 C8.30295311,10.3092714 8.73344372,10.7327407 8.74933333,11.2654182 L8.74933333,13.5185086 C8.74956947,13.7798337 8.64728528,14.0305245 8.46503206,14.2153093 C8.28277883,14.4000942 8.03552265,14.5037991 7.77777778,14.5035597 Z M15.5555556,8.44905515 L15.5555556,16.3348716 C15.5555556,17.2681322 14.8093635,18.0246894 13.8888889,18.0246894 L1.66666667,18.0246894 C0.746192084,18.0246894 1.12725625e-16,17.2681322 0,16.3348716 L0,8.44905515 C-1.12725625e-16,7.51579455 0.746192084,6.75923734 1.66666667,6.75923734 L2.77777778,6.75923734 L2.77777778,5.06941953 C2.78651094,3.25827825 3.74757532,1.58943851 5.29894729,0.691536063 C6.85031925,-0.206366379 8.75630848,-0.196918773 10.2989473,0.716320058 C11.8415861,1.62955889 12.7865109,3.30784624 12.7777778,5.11898752 L12.7777778,6.75923734 L13.8888889,6.75923734 C14.8093635,6.75923734 15.5555556,7.51579455 15.5555556,8.44905515 Z M4.44444444,6.75923734 L11.1111111,6.75923734 L11.1111111,5.06941953 C11.1111111,3.20289831 9.61872694,1.6897839 7.77777778,1.6897839 C5.93682861,1.6897839 4.44444444,3.20289831 4.44444444,5.06941953 L4.44444444,6.75923734 Z M13.8888889,8.44905515 L1.66666667,8.44905515 L1.66666667,16.3348716 L13.8888889,16.3348716 L13.8888889,8.44905515 Z" id="Shape"></path>
            </g>
        </g>
    </g>
</svg>