<?xml version="1.0" encoding="UTF-8"?>
<svg width="25px" height="25px" viewBox="0 0 25 25" version="1.1" xmlns="http://www.w3.org/2000/svg" xmlns:xlink="http://www.w3.org/1999/xlink">
    <!-- Generator: Sketch 55 (78076) - https://sketchapp.com -->
    <title>minus-circle</title>
    <desc>Created with Sketch.</desc>
    <g id="Symbols" stroke="none" stroke-width="1" fill="none" fill-rule="evenodd">
        <g id="footer" transform="translate(-456.000000, -279.000000)" fill="#857363" fill-rule="nonzero">
            <g id="minus-circle" transform="translate(456.000000, 279.000000)">
                <path d="M6.653,13.407 C6.32320831,13.4032182 6.05678177,13.1367917 6.053,12.807 L6.053,12.207 C6.05678177,11.8772083 6.32320831,11.6107818 6.653,11.607 L18.347,11.607 C18.6767917,11.6107818 18.9432182,11.8772083 18.947,12.207 L18.947,12.807 C18.9432182,13.1367917 18.6767917,13.4032182 18.347,13.407 L6.653,13.407 Z M25,12.5 C25,19.4035594 19.4035594,25 12.5,25 C5.59644063,25 3.55271368e-15,19.4035594 1.77635684e-15,12.5 C-3.94430453e-31,5.59644063 5.59644063,3.55271368e-15 12.5,1.77635684e-15 C19.4035594,1.77635684e-15 25,5.59644063 25,12.5 Z M23.387,12.5 C23.387,6.48727593 18.5127241,1.613 12.5,1.613 C6.48727593,1.613 1.613,6.48727593 1.613,12.5 C1.613,18.5127241 6.48727593,23.387 12.5,23.387 C18.5127241,23.387 23.387,18.5127241 23.387,12.5 Z"></path>
            </g>
        </g>
    </g>
</svg>