<?xml version="1.0" encoding="UTF-8"?>
<svg width="25px" height="25px" viewBox="0 0 25 25" version="1.1" xmlns="http://www.w3.org/2000/svg" xmlns:xlink="http://www.w3.org/1999/xlink">
    <!-- Generator: Sketch 55 (78076) - https://sketchapp.com -->
    <title>plus-circle</title>
    <desc>Created with Sketch.</desc>
    <g id="Symbols" stroke="none" stroke-width="1" fill="none" fill-rule="evenodd">
        <g id="footer" transform="translate(-501.000000, -279.000000)" fill="#857363" fill-rule="nonzero">
            <g id="plus-circle" transform="translate(501.000000, 279.000000)">
                <path d="M18.952,12.2 L18.952,12.8 C18.9482182,13.1297917 18.6817917,13.3962182 18.352,13.4 L13.412,13.4 L13.412,18.34 C13.4082182,18.6697917 13.1417917,18.9362182 12.812,18.94 L12.212,18.94 C11.8822083,18.9362182 11.6157818,18.6697917 11.612,18.34 L11.612,13.4 L6.672,13.4 C6.34220831,13.3962182 6.07578177,13.1297917 6.072,12.8 L6.072,12.2 C6.07578177,11.8702083 6.34220831,11.6037818 6.672,11.6 L11.612,11.6 L11.612,6.66 C11.6157818,6.33020831 11.8822083,6.06378177 12.212,6.06 L12.812,6.06 C13.1417917,6.06378177 13.4082182,6.33020831 13.412,6.66 L13.412,11.6 L18.352,11.6 C18.6817917,11.6037818 18.9482182,11.8702083 18.952,12.2 Z M25,12.5 C25,19.4035594 19.4035594,25 12.5,25 C5.59644063,25 1.77635684e-15,19.4035594 0,12.5 C-1.77635684e-15,5.59644063 5.59644063,3.55271368e-15 12.5,1.77635684e-15 C19.4035594,1.77635684e-15 25,5.59644063 25,12.5 Z M23.387,12.5 C23.387,6.48727593 18.5127241,1.613 12.5,1.613 C6.48727593,1.613 1.613,6.48727593 1.613,12.5 C1.613,18.5127241 6.48727593,23.387 12.5,23.387 C18.5127241,23.387 23.387,18.5127241 23.387,12.5 Z"></path>
            </g>
        </g>
    </g>
</svg>