<?xml version="1.0" encoding="UTF-8"?>
<svg width="20px" height="20px" viewBox="0 0 20 20" version="1.1" xmlns="http://www.w3.org/2000/svg" xmlns:xlink="http://www.w3.org/1999/xlink">
    <!-- Generator: sketchtool 54.1 (76490) - https://sketchapp.com -->
    <title>5A73567D-AED4-48CA-9C60-4096ED3F4DDF</title>
    <desc>Created with sketchtool.</desc>
    <g id="screens" stroke="none" stroke-width="1" fill="none" fill-rule="evenodd">
        <g id="00-homepage" transform="translate(-957.000000, -19.000000)" fill="#FFFFFF" fill-rule="nonzero">
            <g id="search" transform="translate(957.000000, 19.000000)">
                <path d="M19.862,18.316 L15.12,13.574 C15.0322108,13.4856179 14.9125703,13.4362482 14.788,13.437 L14.272,13.437 C17.1297141,10.1294215 16.8576154,5.15349466 13.6562825,2.1772432 C10.4549496,-0.799008261 5.47241486,-0.708268577 2.38157314,2.38257314 C-0.709268577,5.47341486 -0.800008261,10.4559496 2.1762432,13.6572825 C5.15249466,16.8586154 10.1284215,17.1307141 13.436,14.273 L13.436,14.789 C13.4369834,14.9132255 13.4860913,15.0322316 13.573,15.121 L18.315,19.863 C18.4029842,19.9511792 18.5224335,20.0007342 18.647,20.0007342 C18.7715665,20.0007342 18.8910158,19.9511792 18.979,19.863 L19.862,18.98 C19.9501792,18.8920158 19.9997342,18.7725665 19.9997342,18.648 C19.9997342,18.5234335 19.9501792,18.4039842 19.862,18.316 Z M8.125,14.374 C4.67322031,14.374 1.875,11.5757797 1.875,8.124 C1.875,4.67222031 4.67322031,1.874 8.125,1.874 C11.5767797,1.874 14.375,4.67222031 14.375,8.124 C14.3755307,9.78176571 13.7172209,11.3717861 12.5450035,12.5440035 C11.3727861,13.7162209 9.78276571,14.3745307 8.125,14.374 Z" id="Shape"></path>
            </g>
        </g>
    </g>
</svg>